<?xml version="1.0" encoding="UTF-8"?>
<svg id="Layer_1" data-name="Layer 1" xmlns="http://www.w3.org/2000/svg" viewBox="0 0 4303.18 787.34">
  <defs>
    <style>
      .cls-1, .cls-2 {
        fill: none;
      }

      .cls-3 {
        fill: #a8be61;
      }

      .cls-4 {
        fill: #f25859;
      }

      .cls-5 {
        fill: #191c2e;
      }

      .cls-6 {
        fill: #b0a3fb;
      }

      .cls-7 {
        fill: #afffcd;
      }

      .cls-2 {
        stroke: #000;
        stroke-miterlimit: 10;
        stroke-width: 5px;
      }
    </style>
  </defs>
  <path class="cls-5" d="M1693.51,203.4c-19.95,0-38.2,4.1-54.76,12.29-16.56,8.2-29.65,19.77-39.26,34.72v-41.67h-48.61v292.75h48.61v-161.87c0-30.63,7.56-53.96,22.7-69.98,15.13-16.03,35.53-24.04,61.17-24.04s45.22,7.75,59.83,23.24c14.6,15.49,21.9,37.85,21.9,67.04v165.61h48.08v-172.55c0-40.6-11.04-71.67-33.12-93.22-22.09-21.54-50.93-32.32-86.54-32.32M1463.27,333.75h-184.84c2.49-27.78,12.37-49.5,29.65-65.17,17.27-15.67,38.2-23.51,62.77-23.51,17.09,0,32.67,3.47,46.74,10.42,14.06,6.94,25.19,17.09,33.39,30.45,8.19,13.36,12.29,29.3,12.29,47.81M1513.49,343.9c0-26.71-5.79-50.66-17.36-71.85-11.58-21.18-28.05-37.84-49.41-49.95-21.37-12.1-45.94-18.16-73.72-18.16s-53.69,6.14-75.59,18.43c-21.9,12.29-38.91,29.83-51.02,52.62-12.11,22.8-18.16,49.33-18.16,79.6s6.23,56.89,18.7,79.86c12.46,22.97,29.65,40.69,51.55,53.15,21.9,12.47,46.74,18.7,74.52,18.7,34.9,0,64.11-8.81,87.61-26.44,23.51-17.63,39.17-40.51,47.01-68.65h-52.35c-5.7,16.39-15.58,29.47-29.65,39.26-14.07,9.8-31.61,14.69-52.62,14.69-25.64,0-47.46-8.1-65.44-24.31-17.99-16.2-27.87-38.73-29.65-67.58h233.98c1.07-10.33,1.6-20.12,1.6-29.38M1122.46,256.28v-47.54h-48.61v292.75h48.61v-159.2c0-59.11,27.24-88.68,81.73-88.68h12.82v-50.22c-22.8,0-42.12,4.63-57.96,13.89-15.85,9.27-28.05,22.26-36.59,39M886.34,463.55c-17.45,0-33.48-4.01-48.08-12.02-14.61-8.01-26.27-20.21-34.99-36.59-8.73-16.38-13.09-36.5-13.09-60.37s4.45-43.45,13.36-59.83c8.9-16.38,20.74-28.58,35.53-36.59,14.77-8.01,31.07-12.02,48.88-12.02s33.66,4.01,48.61,12.02c14.96,8.01,27.06,20.22,36.33,36.59,9.26,16.39,13.89,36.33,13.89,59.83s-4.72,43.45-14.16,59.83c-9.44,16.39-21.82,28.67-37.13,36.86-15.32,8.2-31.7,12.29-49.15,12.29M886.34,506.29c27.78,0,53.06-6.23,75.86-18.7,22.79-12.46,40.87-30.18,54.22-53.15,13.36-22.97,20.03-49.59,20.03-79.86s-6.5-56.8-19.5-79.6c-13-22.79-30.72-40.33-53.15-52.62-22.44-12.29-47.54-18.43-75.32-18.43s-52.89,6.14-75.32,18.43c-22.44,12.29-40.16,29.92-53.15,52.89-13,22.97-19.5,49.41-19.5,79.33s6.32,56.89,18.96,79.86,30.09,40.69,52.35,53.15c22.25,12.47,47.09,18.7,74.52,18.7M653.96,501.48h48.61V106.16h-48.61v395.32ZM399.35,106.79v394.69h51.53v-177.81h139.3v-41.9h-139.3v-133.07h171.58v-41.9h-223.11Z"/>
  <rect class="cls-6" x="8" y="234.52" width="243.6" height="88.15" rx="14.96" ry="14.96"/>
  <rect class="cls-7" x="49.13" y="323.67" width="275.12" height="88.15" rx="14.96" ry="14.96"/>
  <rect class="cls-3" x="8" y="412.81" width="270.85" height="88.15" rx="14.96" ry="14.96"/>
  <path class="cls-4" d="M77.68,145.53c-8.25.43-14.59,7.47-14.15,15.72l3.05,58.15c.43,8.25,7.47,14.59,15.72,14.15l244.87-12.83c8.25-.43,14.59-7.47,14.15-15.72l-3.05-58.15c-.43-8.25-7.47-14.59-15.72-14.15,0,0-244.87,12.83-244.87,12.83Z"/>
  <rect class="cls-1" y="106.17" width="1813.17" height="400.12"/>
  <path class="cls-5" d="M1792.53,625.66c0,1.53.49,2.77,1.48,3.72.97.94,2.23,1.42,3.76,1.42s2.79-.48,3.77-1.42c.97-.95,1.47-2.2,1.47-3.72s-.49-2.77-1.47-3.72c-.98-.95-2.24-1.42-3.77-1.42s-2.79.47-3.76,1.42c-.98.94-1.48,2.19-1.48,3.72M1764.43,641.73v6.89h6.34c4.29,0,7.39-1,9.32-2.99,1.93-1.99,2.89-5.06,2.89-9.23v-52.99h-7.53v53.18c0,1.84-.4,3.15-1.19,3.95-.79.79-2.11,1.19-3.95,1.19h-5.88ZM1779.22,565.32c-1.41,0-2.57.46-3.49,1.38-.92.91-1.38,2.08-1.38,3.48s.46,2.58,1.38,3.49c.92.92,2.08,1.38,3.49,1.38s2.57-.46,3.49-1.38c.91-.91,1.38-2.08,1.38-3.49s-.46-2.57-1.38-3.48c-.92-.92-2.08-1.38-3.49-1.38M1756.9,630.25h7.53v-46.84h-7.53v46.84ZM1760.67,565.32c-1.41,0-2.58.46-3.49,1.38-.92.91-1.38,2.08-1.38,3.48s.46,2.58,1.38,3.49c.91.92,2.08,1.38,3.49,1.38s2.57-.46,3.49-1.38c.91-.91,1.37-2.08,1.37-3.49s-.46-2.57-1.37-3.48c-.92-.92-2.08-1.38-3.49-1.38M1724.85,624.1c-3,0-5.69-.73-8.04-2.21-2.36-1.47-4.18-3.54-5.47-6.2-1.28-2.67-1.93-5.68-1.93-9.05s.64-6.26,1.93-8.86,3.11-4.62,5.47-6.06c2.35-1.44,5.03-2.16,8.04-2.16,4.65,0,8.4,1.61,11.25,4.82s4.27,7.36,4.27,12.44-1.42,9.23-4.27,12.44-6.59,4.82-11.25,4.82M1725.58,582.84c-6.8,0-12.16,2.7-16.08,8.08v-24.99h-7.53v64.3h6.52l1.01-7.16c1.54,2.39,3.64,4.27,6.34,5.65s5.94,2.07,9.74,2.07c4.29,0,8.14-1.01,11.57-3.03,3.43-2.02,6.11-4.84,8.04-8.45s2.89-7.78,2.89-12.49c0-4.96-.97-9.25-2.89-12.86-1.93-3.62-4.59-6.37-7.99-8.27s-7.27-2.85-11.62-2.85M1675.62,618.02c0,4.22.93,7.31,2.8,9.28,1.87,1.96,5,2.94,9.41,2.94h8.64v-6.89h-8.17c-1.9,0-3.24-.42-4-1.24s-1.15-2.22-1.15-4.18v-27.65h11.85v-6.89h-11.85v-13.13h-7.53v13.13h-8.45v6.89h8.45v27.74ZM1643.66,582.84c-3.68,0-6.79.76-9.33,2.3-2.54,1.53-4.58,3.52-6.11,5.97v-25.17h-7.53v64.3h7.53v-23.42c0-5.27,1.27-9.43,3.81-12.49s5.99-4.59,10.33-4.59c4.1,0,7.25,1.27,9.46,3.81,2.2,2.55,3.3,6.23,3.3,11.07v25.62h7.53v-26.09c0-7.34-1.75-12.73-5.23-16.16-3.49-3.43-8.08-5.15-13.78-5.15M1611.77,614.07h-7.53c-.67,3.12-2.18,5.57-4.5,7.35-2.33,1.78-5.21,2.67-8.64,2.67-4.47,0-8.09-1.61-10.88-4.82s-4.18-7.39-4.18-12.53,1.39-9.22,4.18-12.4c2.79-3.18,6.41-4.78,10.88-4.78,3.31,0,6.13.89,8.45,2.67,2.33,1.78,3.86,4.17,4.59,7.16h7.63c-.92-5.15-3.17-9.19-6.75-12.12-3.58-2.94-8.13-4.41-13.64-4.41-4.53,0-8.54,1-12.03,2.99s-6.2,4.79-8.13,8.4c-1.93,3.62-2.89,7.78-2.89,12.5s.95,8.89,2.85,12.53,4.56,6.47,7.99,8.5c3.42,2.02,7.41,3.03,11.93,3.03,5.57,0,10.17-1.49,13.78-4.46,3.62-2.97,5.91-7.06,6.89-12.26M1551.98,630.26h7.53v-46.84h-7.53v46.84ZM1555.75,565.33c-1.41,0-2.57.46-3.49,1.38-.92.91-1.38,2.08-1.38,3.48s.46,2.58,1.38,3.49c.92.92,2.08,1.38,3.49,1.38s2.57-.46,3.49-1.38c.91-.91,1.38-2.08,1.38-3.49s-.46-2.57-1.38-3.48c-.92-.92-2.08-1.38-3.49-1.38M1518.64,624.11c-4.65,0-8.41-1.61-11.25-4.82-2.85-3.21-4.27-7.36-4.27-12.44s1.42-9.23,4.27-12.44,6.6-4.82,11.25-4.82c3,0,5.68.73,8.04,2.2,2.35,1.48,4.18,3.54,5.46,6.2,1.29,2.66,1.93,5.68,1.93,9.04s-.64,6.26-1.93,8.86c-1.28,2.61-3.11,4.63-5.46,6.07-2.36,1.44-5.03,2.16-8.04,2.16M1533.98,565.98v24.62c-1.53-2.39-3.64-4.27-6.33-5.65-2.7-1.38-5.94-2.07-9.74-2.07-4.29,0-8.14,1.01-11.58,3.03-3.42,2.02-6.11,4.83-8.03,8.45-1.93,3.61-2.89,7.78-2.89,12.49,0,4.96.96,9.25,2.89,12.86,1.93,3.62,4.59,6.37,7.99,8.27s7.27,2.85,11.62,2.85c6.8,0,12.15-2.7,16.07-8.08l1.01,7.53h6.53v-64.3h-7.54ZM1439.48,624.12c-4.65,0-8.41-1.61-11.25-4.82-2.85-3.21-4.27-7.36-4.27-12.44s1.42-9.23,4.27-12.44,6.6-4.82,11.25-4.82c3,0,5.68.73,8.04,2.2,2.35,1.48,4.17,3.54,5.46,6.2,1.29,2.66,1.93,5.68,1.93,9.04s-.64,6.26-1.93,8.86c-1.29,2.61-3.11,4.63-5.46,6.07-2.36,1.44-5.04,2.16-8.04,2.16M1454.82,565.99v24.62c-1.53-2.39-3.64-4.27-6.34-5.65s-5.94-2.07-9.73-2.07c-4.29,0-8.14,1.01-11.58,3.03-3.43,2.02-6.11,4.83-8.04,8.45-1.93,3.61-2.89,7.78-2.89,12.49,0,4.96.97,9.25,2.89,12.86,1.93,3.62,4.59,6.37,7.99,8.27s7.27,2.85,11.62,2.85c6.8,0,12.15-2.7,16.07-8.08l1.01,7.53h6.52v-64.3h-7.53.01ZM1388.88,641.76v6.89h6.34c4.29,0,7.39-1,9.32-2.99,1.93-1.99,2.89-5.06,2.89-9.23v-52.99h-7.53v53.18c0,1.84-.4,3.15-1.19,3.95-.8.79-2.11,1.19-3.95,1.19h-5.88ZM1403.67,565.35c-1.41,0-2.58.46-3.49,1.38-.92.91-1.38,2.08-1.38,3.48s.46,2.58,1.38,3.49c.91.92,2.08,1.38,3.49,1.38s2.57-.46,3.49-1.38c.91-.91,1.37-2.08,1.37-3.49s-.46-2.57-1.37-3.48c-.92-.92-2.08-1.38-3.49-1.38M1381.35,630.28h7.53v-46.84h-7.53v46.84ZM1385.12,565.35c-1.42,0-2.58.46-3.49,1.38-.92.91-1.38,2.08-1.38,3.48s.46,2.58,1.38,3.49c.91.92,2.08,1.38,3.49,1.38s2.57-.46,3.48-1.38c.92-.91,1.38-2.08,1.38-3.49s-.46-2.57-1.38-3.48c-.91-.92-2.08-1.38-3.48-1.38M1354.99,618.07c0,4.22.93,7.31,2.8,9.28,1.87,1.96,5,2.94,9.41,2.94h8.64v-6.89h-8.18c-1.9,0-3.23-.42-3.99-1.24s-1.15-2.22-1.15-4.18v-27.65h11.84v-6.89h-11.84v-13.13h-7.53v13.13h-8.45v6.89h8.45v27.74ZM1333.86,630.28h7.53v-64.3h-7.53v64.3ZM1298.14,574.71l11.66,30.96h-23.23l11.58-30.96h-.01ZM1277.38,630.28l6.8-17.36h28.01l6.8,17.36h8.55l-24.43-64.3h-9.46l-24.52,64.3h8.26-.01ZM1228.97,625.69c0,1.53.49,2.77,1.48,3.72.97.94,2.23,1.42,3.76,1.42s2.79-.48,3.77-1.42c.97-.95,1.47-2.2,1.47-3.72s-.49-2.77-1.47-3.72c-.98-.95-2.24-1.42-3.77-1.42s-2.79.47-3.76,1.42c-.98.94-1.48,2.19-1.48,3.72M1182.96,614.85c.06,5.03,1.94,8.95,5.65,11.76,3.7,2.82,8.62,4.23,14.74,4.23,3.43,0,6.56-.58,9.37-1.75,2.81-1.17,5.05-2.82,6.71-4.96,1.65-2.14,2.47-4.62,2.47-7.44,0-3.24-.81-5.82-2.43-7.72-1.63-1.9-3.77-3.27-6.44-4.14-2.66-.85-6.05-1.53-10.14-2.02-2.94-.37-5.13-.7-6.57-1s-2.61-.89-3.54-1.75c-.91-.86-1.38-2.08-1.38-3.68,0-2.14.98-3.87,2.94-5.18,1.96-1.32,4.53-1.98,7.71-1.98s5.73.79,7.81,2.39c2.08,1.59,3.27,3.61,3.58,6.06h7.53c-.37-4.78-2.29-8.45-5.74-11.02-3.46-2.57-7.95-3.86-13.46-3.86-3.37,0-6.4.6-9.1,1.79s-4.82,2.86-6.38,5-2.34,4.59-2.34,7.35c0,3.06.8,5.46,2.39,7.21,1.6,1.75,3.68,3.02,6.25,3.81s5.87,1.44,9.92,1.93c2.88.37,5.09.74,6.66,1.11,1.56.37,2.83,1.04,3.81,2.02.98.98,1.47,2.39,1.47,4.23,0,2.14-1.02,3.87-3.07,5.19-2.05,1.32-4.73,1.97-8.04,1.97-3.73,0-6.78-.88-9.14-2.66-2.35-1.78-3.6-4.08-3.72-6.89h-7.53,0ZM1166.61,630.28h7.53v-46.84h-7.53v46.84ZM1170.37,565.35c-1.41,0-2.57.46-3.49,1.38-.91.91-1.38,2.08-1.38,3.48s.46,2.58,1.38,3.49c.92.92,2.08,1.38,3.49,1.38s2.57-.46,3.49-1.38c.92-.91,1.38-2.08,1.38-3.49s-.46-2.57-1.38-3.48c-.92-.92-2.08-1.38-3.49-1.38M1137.86,582.89c-6.74,0-11.88,2.3-15.43,6.89l-1.01-6.34h-6.52v46.84h7.53v-23.42c0-5.27,1.25-9.43,3.77-12.49,2.51-3.06,5.96-4.59,10.38-4.59,4.1,0,7.24,1.27,9.42,3.81,2.17,2.55,3.26,6.23,3.26,11.07v25.62h7.53v-26.09c0-7.34-1.73-12.73-5.19-16.16-3.45-3.43-8.03-5.15-13.73-5.15M1086.16,582.88c-6.74,0-11.88,2.3-15.43,6.89l-1.01-6.34h-6.52v46.84h7.53v-23.42c0-5.27,1.26-9.43,3.77-12.49s5.97-4.59,10.38-4.59c4.11,0,7.24,1.27,9.42,3.81,2.17,2.55,3.26,6.23,3.26,11.07v25.62h7.53v-26.09c0-7.34-1.73-12.73-5.19-16.16-3.45-3.43-8.03-5.15-13.73-5.15M1018.29,602.06c.37-3.73,1.9-6.77,4.59-9.09,2.7-2.33,5.81-3.49,9.37-3.49,3.98,0,7.27,1.1,9.87,3.3,2.61,2.2,4.09,5.3,4.46,9.28h-28.29,0ZM1009.94,606.84c0,4.71.96,8.89,2.89,12.53,1.93,3.65,4.64,6.47,8.13,8.45,3.49,1.99,7.56,2.99,12.21,2.99,5.33,0,9.83-1.52,13.5-4.55,3.68-3.03,5.97-6.94,6.89-11.71h-7.63c-.79,3-2.37,5.34-4.73,7.03-2.36,1.68-5.22,2.52-8.59,2.52-4.35,0-7.87-1.38-10.56-4.14-2.7-2.76-4.11-6.43-4.23-11.02v-.64h36.37c.12-1.47.18-2.54.18-3.21-.12-4.53-1.13-8.48-3.03-11.84-1.9-3.37-4.5-5.94-7.81-7.72-3.3-1.78-7.1-2.67-11.39-2.67s-8.2,1-11.57,2.99-5.99,4.79-7.86,8.4c-1.87,3.62-2.79,7.81-2.79,12.59M966.56,630.26h7.53v-12.4l9.37-9.83,15.61,22.23h9.1l-19.29-27.65,18-19.19h-9.01l-23.79,25.17v-42.62h-7.53v64.3h0ZM933.22,624.11c-4.65,0-8.41-1.61-11.25-4.82-2.85-3.21-4.27-7.36-4.27-12.44s1.42-9.23,4.27-12.44c2.85-3.21,6.6-4.82,11.25-4.82,3,0,5.68.73,8.04,2.2,2.35,1.48,4.18,3.54,5.46,6.2,1.29,2.66,1.93,5.68,1.93,9.04s-.64,6.26-1.93,8.86c-1.28,2.61-3.11,4.63-5.46,6.07-2.36,1.44-5.04,2.16-8.04,2.16M949.57,583.43l-1.01,8.08c-1.53-2.76-3.64-4.88-6.34-6.38-2.69-1.51-5.93-2.26-9.73-2.26-4.29,0-8.14,1.01-11.58,3.03-3.43,2.02-6.11,4.83-8.03,8.45-1.93,3.61-2.9,7.78-2.9,12.49,0,4.96.97,9.25,2.9,12.86,1.93,3.62,4.59,6.37,7.99,8.27,3.4,1.9,7.27,2.85,11.62,2.85,7.35,0,12.71-2.88,16.07-8.64v5.51c0,9.86-5.05,14.78-15.15,14.78-3.93,0-7.14-.79-9.65-2.38-2.51-1.6-4.07-3.86-4.68-6.8h-7.72c.61,5.08,2.83,9,6.66,11.75s8.77,4.13,14.83,4.13c15.49,0,23.24-7.07,23.24-21.21v-44.55h-6.53v.02ZM905.12,583.43c-3.8,0-6.77.64-8.92,1.93-2.14,1.29-3.89,3-5.23,5.15l-1.01-7.07h-6.53v46.84h7.54v-23.88c0-4.41.96-8.11,2.89-11.12,1.93-3,5.12-4.5,9.6-4.5h3.77v-7.35h-2.11ZM851.39,624.12c-3.06,0-5.77-.73-8.13-2.21-2.36-1.47-4.18-3.51-5.46-6.15-1.29-2.63-1.93-5.6-1.93-8.91s.64-6.28,1.93-8.91c1.28-2.64,3.1-4.68,5.46-6.16,2.36-1.47,5.06-2.2,8.13-2.2s5.77.73,8.13,2.2c2.36,1.48,4.18,3.52,5.46,6.16,1.29,2.63,1.93,5.6,1.93,8.91s-.64,6.28-1.93,8.91c-1.28,2.64-3.1,4.68-5.46,6.15-2.36,1.48-5.06,2.21-8.13,2.21M851.39,630.83c4.53,0,8.56-1.01,12.08-3.03s6.26-4.84,8.22-8.45c1.96-3.61,2.94-7.78,2.94-12.49s-.98-8.88-2.94-12.49c-1.96-3.62-4.7-6.44-8.22-8.45-3.52-2.02-7.54-3.03-12.08-3.03s-8.56,1.01-12.08,3.03-6.26,4.83-8.22,8.45c-1.96,3.61-2.94,7.78-2.94,12.49s.98,8.88,2.94,12.49,4.7,6.43,8.22,8.45c3.52,2.02,7.54,3.03,12.08,3.03M786.36,590.32h27.19l-28.38,34.26v5.69h39.68v-6.89h-29.67l28.48-34.26v-5.69h-37.29v6.89h-.01ZM719.13,602.07c.37-3.73,1.9-6.77,4.59-9.09,2.69-2.33,5.81-3.49,9.36-3.49,3.98,0,7.27,1.1,9.87,3.3s4.08,5.3,4.45,9.28h-28.28.01ZM710.77,606.85c0,4.71.97,8.89,2.89,12.53,1.93,3.65,4.64,6.47,8.13,8.45,3.49,1.99,7.56,2.99,12.22,2.99,5.33,0,9.82-1.52,13.5-4.55,3.67-3.03,5.97-6.94,6.89-11.71h-7.62c-.8,3-2.37,5.34-4.73,7.03-2.35,1.68-5.22,2.52-8.59,2.52-4.35,0-7.87-1.38-10.56-4.14s-4.1-6.43-4.23-11.02v-.64h36.37c.12-1.47.19-2.54.19-3.21-.13-4.53-1.14-8.48-3.03-11.84-1.9-3.37-4.5-5.94-7.81-7.72-3.3-1.78-7.1-2.67-11.39-2.67s-8.21,1-11.58,2.99c-3.36,1.99-5.99,4.79-7.85,8.4-1.87,3.62-2.8,7.81-2.8,12.59M687.26,618.06c0,4.22.93,7.31,2.8,9.28,1.87,1.96,5,2.94,9.41,2.94h8.63v-6.89h-8.17c-1.9,0-3.23-.42-3.99-1.24s-1.15-2.22-1.15-4.18v-27.65h11.84v-6.89h-11.84v-13.13h-7.53v13.13h-8.45v6.89h8.45v27.74h0ZM636.46,614.84c.06,5.03,1.95,8.95,5.65,11.76,3.71,2.82,8.62,4.23,14.74,4.23,3.43,0,6.55-.58,9.36-1.75,2.82-1.17,5.06-2.82,6.71-4.96,1.66-2.14,2.48-4.62,2.48-7.44,0-3.24-.81-5.82-2.43-7.72-1.62-1.9-3.76-3.27-6.43-4.14-2.66-.85-6.05-1.53-10.14-2.02-2.94-.37-5.13-.7-6.57-1-1.44-.31-2.61-.89-3.54-1.75-.92-.86-1.38-2.08-1.38-3.68,0-2.14.98-3.87,2.94-5.18,1.96-1.32,4.53-1.98,7.72-1.98s5.72.79,7.81,2.39c2.08,1.59,3.27,3.61,3.58,6.06h7.54c-.37-4.78-2.29-8.45-5.75-11.02-3.45-2.57-7.94-3.86-13.46-3.86-3.36,0-6.4.6-9.09,1.79-2.7,1.19-4.82,2.86-6.38,5-1.57,2.14-2.34,4.59-2.34,7.35,0,3.06.79,5.46,2.39,7.21,1.59,1.75,3.67,3.02,6.25,3.81,2.57.79,5.87,1.44,9.92,1.93,2.88.37,5.09.74,6.65,1.11,1.57.37,2.83,1.04,3.81,2.02.98.98,1.47,2.39,1.47,4.23,0,2.14-1.03,3.87-3.07,5.19-2.05,1.32-4.73,1.97-8.04,1.97-3.74,0-6.78-.88-9.14-2.66-2.36-1.78-3.6-4.08-3.72-6.89h-7.54,0ZM593.39,602.07c.37-3.73,1.9-6.77,4.59-9.09,2.69-2.33,5.81-3.49,9.36-3.49,3.98,0,7.27,1.1,9.87,3.3s4.09,5.3,4.46,9.28h-28.29,0ZM585.03,606.85c0,4.71.97,8.89,2.89,12.53,1.93,3.65,4.64,6.47,8.13,8.45,3.49,1.99,7.57,2.99,12.22,2.99,5.33,0,9.82-1.52,13.5-4.55,3.67-3.03,5.97-6.94,6.89-11.71h-7.62c-.8,3-2.37,5.34-4.73,7.03-2.35,1.68-5.21,2.52-8.59,2.52-4.35,0-7.87-1.38-10.56-4.14s-4.1-6.43-4.23-11.02v-.64h36.37c.12-1.47.19-2.54.19-3.21-.13-4.53-1.14-8.48-3.03-11.84-1.9-3.37-4.5-5.94-7.81-7.72-3.3-1.78-7.1-2.67-11.39-2.67s-8.2,1-11.58,2.99c-3.36,1.99-5.99,4.79-7.85,8.4-1.87,3.62-2.8,7.81-2.8,12.59M554.63,624.12c-3,0-5.68-.73-8.03-2.21-2.36-1.47-4.18-3.54-5.47-6.2-1.28-2.67-1.93-5.68-1.93-9.05s.64-6.26,1.93-8.86,3.11-4.62,5.47-6.06c2.35-1.44,5.03-2.16,8.03-2.16,4.65,0,8.41,1.61,11.25,4.82,2.85,3.21,4.27,7.36,4.27,12.44s-1.42,9.23-4.27,12.44c-2.85,3.21-6.6,4.82-11.25,4.82M555.36,582.86c-6.8,0-12.15,2.7-16.07,8.08v-24.99h-7.53v64.3h6.52l1.01-7.16c1.53,2.39,3.64,4.27,6.34,5.65s5.94,2.07,9.73,2.07c4.29,0,8.14-1.01,11.58-3.03,3.43-2.02,6.11-4.84,8.04-8.45s2.89-7.78,2.89-12.49c0-4.96-.97-9.25-2.89-12.86-1.93-3.62-4.59-6.37-7.99-8.27-3.39-1.9-7.27-2.85-11.62-2.85M462.61,602.05c.37-3.73,1.9-6.77,4.59-9.09,2.69-2.33,5.81-3.49,9.36-3.49,3.98,0,7.27,1.1,9.87,3.3s4.09,5.3,4.46,9.28h-28.29.01ZM454.25,606.83c0,4.71.97,8.89,2.89,12.53,1.93,3.65,4.64,6.47,8.13,8.45,3.49,1.99,7.57,2.99,12.22,2.99,5.33,0,9.82-1.52,13.5-4.55,3.67-3.03,5.97-6.94,6.89-11.71h-7.62c-.8,3-2.37,5.34-4.73,7.03-2.35,1.68-5.21,2.52-8.59,2.52-4.35,0-7.87-1.38-10.56-4.14s-4.1-6.43-4.23-11.02v-.64h36.37c.12-1.47.19-2.54.19-3.21-.13-4.53-1.14-8.48-3.03-11.84-1.9-3.37-4.5-5.94-7.81-7.72-3.3-1.78-7.1-2.67-11.39-2.67s-8.2,1-11.58,2.99c-3.36,1.99-5.99,4.79-7.85,8.4-1.87,3.62-2.8,7.81-2.8,12.59M403.37,622.9v-49.6h11.02c7.71,0,13.67,2.23,17.86,6.66,4.2,4.44,6.29,10.49,6.29,18.14s-2.11,13.63-6.34,18.09c-4.23,4.47-10.17,6.71-17.82,6.71h-11.02,0ZM395.38,630.25h19.01c6.61,0,12.35-1.33,17.22-3.99,4.87-2.67,8.6-6.43,11.21-11.3,2.6-4.87,3.9-10.49,3.9-16.86s-1.3-12.06-3.9-16.89c-2.61-4.84-6.34-8.59-11.21-11.25-4.86-2.67-10.61-4-17.22-4h-19.01v64.3h0Z"/>
  <rect class="cls-1" x="395.39" y="565.31" width="1407.61" height="83.86"/>
  <g>
    <path d="M2681.7,415.49h18.88v-104.04c0-13.01,0-19.07-.9-27.75h.9c5.39,7.81,13.48,18.21,23.37,31.21l80.01,101.44h15.28v-160.4h-18.88v101.44c0,12.14,0,19.07.9,28.61h-.9c-5.39-8.67-13.48-19.07-24.27-32.94l-76.41-97.11h-17.98v159.53h0ZM2900.14,418.1c33.26,0,54.84-26.88,54.84-59.82s-21.58-59.82-54.84-59.82-54.84,26.88-54.84,59.82,21.58,59.82,54.84,59.82h0ZM2900.14,402.49c-21.58,0-35.96-18.21-35.96-45.08s13.48-45.09,35.96-45.09,35.96,18.21,35.96,45.09-14.38,45.08-35.96,45.08h0ZM3024.2,418.1c33.26,0,54.84-26.88,54.84-59.82s-21.58-59.82-54.84-59.82-54.84,26.88-54.84,59.82,21.57,59.82,54.84,59.82h0ZM3024.2,402.49c-21.57,0-35.96-18.21-35.96-45.08s13.48-45.09,35.96-45.09,35.96,18.21,35.96,45.09-14.38,45.08-35.96,45.08h0ZM3098.81,415.49h18.88v-84.97c11.69-11.27,19.78-16.47,28.77-16.47,4.5,0,7.19.87,9.89,2.6l6.29-16.47c-2.7-1.73-8.09-2.6-12.59-2.6-9.89,0-20.68,3.47-33.26,17.34l-2.7-14.74h-15.28v115.31h0ZM3224.67,418.1c15.28,0,29.66-3.47,37.75-7.81v-166.46h-17.98v56.36c-6.29-1.73-13.48-2.6-19.77-2.6-34.16,0-61.13,24.28-61.13,61.56-1.8,39.02,26.97,58.96,61.13,58.96h0ZM3224.67,402.49c-27.86,0-44.05-17.34-44.05-43.35,0-29.48,19.78-45.95,43.15-45.95,8.09,0,12.58.87,18.88,2.6v83.23c-3.6,2.6-11.69,3.47-17.98,3.47h0ZM3289.4,415.49h17.97v-84.97c11.69-9.54,23.38-17.34,36.86-17.34,17.09,0,21.58,13,21.58,30.34v71.09h17.98v-77.16c0-28.61-16.18-40.75-35.05-40.75-15.29,0-28.77,6.94-41.36,17.34v-70.23h-17.97v171.67h0ZM3458.4,418.1c33.26,0,54.84-26.88,54.84-59.82s-21.58-59.82-54.84-59.82-54.84,26.88-54.84,59.82,21.58,59.82,54.84,59.82h0ZM3458.4,402.49c-21.58,0-35.96-18.21-35.96-45.08s13.49-45.09,35.96-45.09,35.96,18.21,35.96,45.09-13.49,45.08-35.96,45.08h0ZM3538.41,415.49h17.97v-100.57h24.28l5.39-14.74h-30.56v-20.81c0-13.01,5.4-20.81,17.09-20.81,4.49,0,8.99.87,12.58,2.6l3.6-14.74c-5.39-2.6-12.58-3.47-17.98-3.47-16.18,0-34.16,8.67-34.16,37.28v19.94h-16.18v14.74h16.18v100.57h1.8ZM3612.11,415.49h17.98v-100.57h24.28l5.39-14.74h-30.56v-20.81c0-13.01,5.4-20.81,17.09-20.81,4.49,0,8.99.87,12.58,2.6l3.6-14.74c-5.39-2.6-12.58-3.47-17.98-3.47-16.18,0-34.16,8.67-34.16,37.28v19.94h-16.18v14.74h16.18v100.57h1.8Z"/>
    <polygon points="2459.86 453.12 2459.86 418.1 2424.83 418.1 2424.83 453.12 2459.86 453.12 2459.86 453.12"/>
    <polygon points="2424.83 418.1 2424.83 383.07 2389.8 383.07 2389.8 418.1 2424.83 418.1 2424.83 418.1"/>
    <polygon points="2424.83 534.85 2424.83 453.12 2343.1 453.12 2343.1 534.85 2424.83 534.85 2424.83 534.85"/>
    <polygon points="2343.1 453.12 2343.1 348.04 2238.02 348.04 2238.02 453.12 2343.1 453.12 2343.1 453.12"/>
    <polygon points="2529.91 348.04 2529.91 161.23 2343.1 161.23 2343.1 348.04 2529.91 348.04 2529.91 348.04"/>
    <path d="M3834.62,414.53v-17.38h-76.8l77.83-127.18v-3.5h-106v17.38h75.16l-78.24,127.39v3.29h108.06ZM3930.03,410.16c8.02-4.97,14.19-11.86,18.51-20.67,4.32-8.81,6.48-19,6.48-30.59s-2.14-21.56-6.43-30.33c-4.28-8.77-10.43-15.66-18.46-20.67-8.02-5-17.58-7.51-28.69-7.51s-20.26,2.45-28.28,7.35c-8.02,4.9-14.22,11.76-18.61,20.57-4.39,8.81-6.58,19-6.58,30.59s2.16,21.68,6.48,30.48c4.32,8.81,10.47,15.72,18.46,20.72,7.99,5,17.49,7.51,28.53,7.51s20.56-2.49,28.58-7.45h0ZM3876.05,388.93c-5.76-7.54-8.63-17.55-8.63-30.02,0-8.09,1.23-15.22,3.7-21.39,2.47-6.17,6.2-11,11.21-14.5,5-3.5,11.38-5.24,19.12-5.24,11.38,0,19.91,3.74,25.6,11.21,5.69,7.47,8.53,17.44,8.53,29.92s-2.83,22.14-8.48,29.82c-5.65,7.68-14.21,11.51-25.65,11.51s-19.64-3.77-25.4-11.31h0ZM3989.87,414.53v-55.73c0-4.39.38-8.69,1.13-12.9.75-4.21,2.11-8.12,4.06-11.72,1.96-3.6,4.71-6.7,8.28-9.31,3.91-2.81,8.16-4.45,12.75-4.93,4.59-.48,8.81-.24,12.64.72v-17.17c-3.29-.68-6.82-.91-10.59-.67-3.77.24-7.47.96-11.1,2.16s-6.89,2.97-9.77,5.29c-2.61,1.85-4.95,4.22-7.04,7.09-2.09,2.88-3.79,6.03-5.09,9.46l2.67,3.5v-26.84h-16.35v111.04h18.41ZM4106.25,463.22c6.72-2.5,12.2-6.31,16.45-11.41,4.25-5.11,7.09-11.6,8.53-19.48.55-2.74.91-5.5,1.08-8.27.17-2.78.25-5.71.25-8.79v-111.76h-16.24v81.22h-2.16v30.33c.07,7.54-1.03,13.84-3.29,18.92-2.26,5.07-5.71,8.89-10.33,11.46-4.63,2.57-10.47,3.86-17.53,3.86-5.35,0-10.54-1.24-15.58-3.7-5.04-2.47-8.93-6.41-11.67-11.82l-16.76,8.84c3.08,5.48,6.94,10.03,11.57,13.62,4.63,3.6,9.72,6.29,15.27,8.07,5.55,1.78,11.24,2.67,17.07,2.67,8.84,0,16.62-1.25,23.34-3.75h0ZM4107.9,409.85c7.13-5.17,12.53-12.18,16.19-21.02,3.67-8.84,5.5-18.81,5.5-29.92s-1.83-21.16-5.5-29.97c-3.67-8.81-9.06-15.77-16.19-20.87-7.13-5.1-15.94-7.66-26.42-7.66s-19.12,2.56-26.53,7.66c-7.4,5.11-13.11,12.08-17.12,20.92-4.01,8.84-6.02,18.82-6.02,29.92s2.01,21.09,6.02,29.97c4.01,8.88,9.72,15.88,17.12,21.02,7.4,5.14,16.28,7.71,26.63,7.71s19.19-2.59,26.32-7.76h0ZM4065.69,395.31c-4.83-3.7-8.45-8.72-10.85-15.06-2.4-6.34-3.6-13.45-3.6-21.33s1.18-14.87,3.55-21.18c2.36-6.3,6-11.31,10.9-15.01,4.9-3.7,11.12-5.55,18.66-5.55s13.25,1.77,17.94,5.3c4.7,3.53,8.21,8.45,10.54,14.75,2.33,6.31,3.5,13.54,3.5,21.7s-1.15,15.3-3.45,21.64c-2.3,6.34-5.84,11.31-10.64,14.91-4.8,3.6-10.94,5.4-18.41,5.4s-13.31-1.85-18.15-5.55h0Z"/>
    <path d="M2699.4,529.15h11.49l20.39-58.27h-9.9l-16.23,46.79-16.07-46.79h-10.16l20.48,58.27h0ZM2759.08,529.65c4.27,0,8.06-.9,11.36-2.71,3.3-1.8,5.86-4.35,7.66-7.66,1.8-3.3,2.71-7.12,2.71-11.45s-.9-8.06-2.71-11.36c-1.81-3.3-4.36-5.87-7.66-7.7-3.3-1.83-7.09-2.75-11.36-2.75s-8.06.92-11.36,2.75c-3.3,1.83-5.86,4.4-7.66,7.7-1.81,3.3-2.71,7.09-2.71,11.36s.9,8.14,2.71,11.45c1.8,3.3,4.35,5.86,7.66,7.66,3.3,1.81,7.09,2.71,11.36,2.71h0ZM2759.08,521.99c-3.78,0-6.8-1.32-9.08-3.96-2.28-2.63-3.41-6.03-3.41-10.2s1.14-7.56,3.41-10.2c2.28-2.63,5.3-3.96,9.08-3.96s6.81,1.32,9.11,3.96c2.3,2.64,3.45,6.04,3.45,10.2s-1.15,7.56-3.45,10.2c-2.3,2.64-5.34,3.96-9.11,3.96h0ZM2815.69,529.65c4.27,0,8.06-.9,11.36-2.71,3.3-1.8,5.86-4.35,7.66-7.66,1.8-3.3,2.71-7.12,2.71-11.45s-.9-8.06-2.71-11.36-4.36-5.87-7.66-7.7c-3.3-1.83-7.09-2.75-11.36-2.75s-8.06.92-11.36,2.75c-3.3,1.83-5.86,4.4-7.66,7.7s-2.71,7.09-2.71,11.36.9,8.14,2.71,11.45c1.8,3.3,4.36,5.86,7.66,7.66,3.3,1.81,7.09,2.71,11.36,2.71h0ZM2815.69,521.99c-3.77,0-6.8-1.32-9.07-3.96-2.28-2.63-3.41-6.03-3.41-10.2s1.14-7.56,3.41-10.2c2.27-2.63,5.3-3.96,9.07-3.96s6.81,1.32,9.11,3.96c2.3,2.64,3.46,6.04,3.46,10.2s-1.15,7.56-3.46,10.2c-2.3,2.64-5.34,3.96-9.11,3.96h0ZM2873.72,486.53c-3.28,0-5.88.57-7.83,1.71-1.94,1.14-3.52,2.71-4.74,4.7l-1-6.41h-7.99v42.62h8.99v-21.39c0-3.72.83-6.78,2.5-9.2,1.66-2.41,4.36-3.62,8.08-3.62h3.99v-8.41h-2ZM2950.14,470.88v21.56c-1.44-2-3.33-3.56-5.66-4.7-2.33-1.14-5.05-1.71-8.16-1.71-3.83,0-7.27.9-10.32,2.71-3.05,1.8-5.45,4.36-7.2,7.66-1.75,3.3-2.62,7.12-2.62,11.45s.86,8.31,2.58,11.61c1.72,3.3,4.11,5.83,7.16,7.57,3.05,1.75,6.52,2.62,10.41,2.62,5.88,0,10.52-2.3,13.9-6.91l1.08,6.41h7.83v-58.27h-8.99ZM2937.82,522.07c-3.72,0-6.72-1.32-8.99-3.96-2.28-2.64-3.41-6.06-3.41-10.28s1.14-7.56,3.41-10.2c2.28-2.63,5.27-3.96,8.99-3.96s6.71,1.32,8.99,3.96c2.27,2.64,3.41,6.09,3.41,10.36s-1.14,7.55-3.41,10.16c-2.28,2.61-5.28,3.91-8.99,3.91h0ZM2973.86,507.92c0,4.33.9,8.13,2.71,11.41,1.8,3.28,4.36,5.81,7.66,7.62,3.3,1.81,7.17,2.71,11.61,2.71,5.1,0,9.36-1.39,12.78-4.16,3.41-2.77,5.51-6.32,6.28-10.66h-8.99c-.61,2.39-1.86,4.23-3.75,5.54-1.89,1.3-4.22,1.96-6.99,1.96-3.5,0-6.3-1.08-8.41-3.25-2.11-2.17-3.28-5.1-3.5-8.82v-.5h32.13c.17-1.17.25-2.3.25-3.41-.06-4.11-.99-7.69-2.79-10.74-1.8-3.05-4.27-5.41-7.41-7.08-3.14-1.67-6.76-2.5-10.86-2.5s-7.65.9-10.78,2.71c-3.14,1.8-5.58,4.36-7.32,7.66-1.75,3.3-2.62,7.15-2.62,11.53h0ZM2983.6,503.18c.33-3,1.57-5.4,3.7-7.2,2.14-1.8,4.68-2.71,7.62-2.71,3.16,0,5.78.87,7.87,2.62,2.08,1.75,3.31,4.18,3.71,7.28h-22.89ZM3082,486.03c-5.83,0-10.46,2.28-13.9,6.83l-1.08-6.33h-7.83v59.27h8.99v-22.64c1.39,2,3.25,3.58,5.58,4.74,2.33,1.17,5.08,1.75,8.24,1.75,3.88,0,7.35-.9,10.41-2.71,3.05-1.8,5.44-4.35,7.16-7.66,1.72-3.3,2.58-7.12,2.58-11.45s-.86-8.31-2.58-11.61c-1.72-3.3-4.11-5.83-7.16-7.58s-6.52-2.62-10.41-2.62h0ZM3080.5,522.07c-3.72,0-6.72-1.33-8.99-4-2.28-2.66-3.41-6.13-3.41-10.41s1.14-7.53,3.41-10.11c2.27-2.58,5.27-3.87,8.99-3.87s6.73,1.3,9.03,3.91c2.3,2.61,3.45,6.02,3.45,10.24s-1.15,7.57-3.45,10.24c-2.3,2.66-5.31,4-9.03,4h0ZM3138.44,486.53c-3.28,0-5.88.57-7.82,1.71-1.94,1.14-3.52,2.71-4.74,4.7l-1-6.41h-7.99v42.62h8.99v-21.39c0-3.72.83-6.78,2.5-9.2,1.67-2.41,4.36-3.62,8.08-3.62h4v-8.41h-2ZM3171.82,529.65c4.27,0,8.06-.9,11.36-2.71,3.3-1.8,5.86-4.35,7.66-7.66,1.8-3.3,2.71-7.12,2.71-11.45s-.9-8.06-2.71-11.36c-1.8-3.3-4.36-5.87-7.66-7.7-3.3-1.83-7.09-2.75-11.36-2.75s-8.06.92-11.36,2.75c-3.3,1.83-5.86,4.4-7.66,7.7-1.8,3.3-2.71,7.09-2.71,11.36s.9,8.14,2.71,11.45c1.8,3.3,4.36,5.86,7.66,7.66,3.3,1.81,7.09,2.71,11.36,2.71h0ZM3171.82,521.99c-3.77,0-6.8-1.32-9.07-3.96-2.28-2.63-3.41-6.03-3.41-10.2s1.14-7.56,3.41-10.2c2.28-2.63,5.3-3.96,9.07-3.96s6.81,1.32,9.12,3.96c2.3,2.64,3.45,6.04,3.45,10.2s-1.15,7.56-3.45,10.2c-2.3,2.64-5.34,3.96-9.12,3.96h0ZM3203.29,486.53v7.91h7.41v34.71h9.08v-34.71h11.41v-7.91h-11.41v-3.58c0-1.44.32-2.5.96-3.16.64-.67,1.68-1,3.12-1h7.41v-7.91h-8.66c-4.05,0-7.05.96-8.99,2.87-1.94,1.92-2.92,4.76-2.92,8.53v4.24h-7.41ZM3239.84,507.92c0,4.33.9,8.13,2.71,11.41,1.8,3.28,4.36,5.81,7.66,7.62,3.3,1.81,7.17,2.71,11.61,2.71,5.11,0,9.37-1.39,12.78-4.16,3.41-2.77,5.51-6.32,6.29-10.66h-8.99c-.61,2.39-1.86,4.23-3.75,5.54-1.89,1.3-4.22,1.96-6.99,1.96-3.5,0-6.3-1.08-8.41-3.25-2.11-2.17-3.28-5.1-3.5-8.82v-.5h32.13c.17-1.17.25-2.3.25-3.41-.06-4.11-.99-7.69-2.79-10.74-1.8-3.05-4.27-5.41-7.41-7.08-3.14-1.67-6.76-2.5-10.86-2.5s-7.65.9-10.78,2.71c-3.14,1.8-5.58,4.36-7.32,7.66-1.75,3.3-2.62,7.15-2.62,11.53h0ZM3249.58,503.18c.33-3,1.57-5.4,3.7-7.2,2.14-1.8,4.67-2.71,7.62-2.71,3.17,0,5.79.87,7.87,2.62,2.08,1.75,3.31,4.18,3.71,7.28h-22.89ZM3294.61,515.08c.11,4.55,1.93,8.12,5.45,10.7,3.52,2.58,8.14,3.87,13.86,3.87,3.39,0,6.44-.54,9.16-1.62,2.72-1.08,4.86-2.64,6.41-4.66,1.55-2.02,2.33-4.37,2.33-7.03,0-3-.75-5.37-2.25-7.12-1.5-1.75-3.5-3.02-5.99-3.83-2.5-.8-5.58-1.4-9.24-1.79-2.72-.33-4.69-.62-5.91-.87-1.22-.25-2.24-.69-3.04-1.33-.81-.64-1.21-1.59-1.21-2.87,0-1.72.8-3.08,2.41-4.08,1.61-1,3.72-1.5,6.33-1.5s4.77.62,6.49,1.87c1.72,1.25,2.69,2.84,2.91,4.79h8.74c-.28-4.33-2.09-7.68-5.45-10.07-3.36-2.39-7.73-3.58-13.11-3.58-3.28,0-6.2.56-8.78,1.67-2.58,1.11-4.61,2.68-6.08,4.7-1.47,2.03-2.21,4.34-2.21,6.95,0,2.77.73,4.98,2.21,6.62,1.47,1.64,3.41,2.83,5.83,3.58,2.41.75,5.48,1.35,9.2,1.79,2.72.33,4.73.65,6.04.96,1.3.3,2.34.82,3.12,1.54.77.72,1.17,1.8,1.17,3.25,0,1.72-.85,3.09-2.54,4.12-1.69,1.03-3.9,1.54-6.62,1.54-3.05,0-5.54-.71-7.45-2.12-1.91-1.41-2.96-3.23-3.12-5.45h-8.66ZM3344.31,515.08c.11,4.55,1.93,8.12,5.45,10.7,3.52,2.58,8.14,3.87,13.86,3.87,3.39,0,6.44-.54,9.16-1.62,2.72-1.08,4.86-2.64,6.41-4.66,1.55-2.02,2.33-4.37,2.33-7.03,0-3-.75-5.37-2.25-7.12-1.5-1.75-3.5-3.02-5.99-3.83-2.5-.8-5.58-1.4-9.24-1.79-2.72-.33-4.69-.62-5.91-.87-1.22-.25-2.24-.69-3.04-1.33-.81-.64-1.21-1.59-1.21-2.87,0-1.72.8-3.08,2.41-4.08,1.61-1,3.72-1.5,6.32-1.5s4.77.62,6.5,1.87c1.72,1.25,2.69,2.84,2.91,4.79h8.74c-.28-4.33-2.09-7.68-5.45-10.07-3.36-2.39-7.73-3.58-13.11-3.58-3.28,0-6.2.56-8.78,1.67-2.58,1.11-4.61,2.68-6.08,4.7-1.47,2.03-2.21,4.34-2.21,6.95,0,2.77.73,4.98,2.21,6.62,1.47,1.64,3.41,2.83,5.83,3.58,2.41.75,5.48,1.35,9.2,1.79,2.72.33,4.73.65,6.04.96,1.3.3,2.34.82,3.12,1.54.77.72,1.17,1.8,1.17,3.25,0,1.72-.85,3.09-2.54,4.12-1.69,1.03-3.9,1.54-6.62,1.54-3.05,0-5.54-.71-7.45-2.12-1.91-1.41-2.96-3.23-3.12-5.45h-8.66ZM3400.84,469.46c-1.55,0-2.86.51-3.91,1.54-1.06,1.03-1.58,2.32-1.58,3.87s.53,2.84,1.58,3.87c1.06,1.03,2.36,1.54,3.91,1.54s2.86-.51,3.91-1.54c1.05-1.03,1.58-2.32,1.58-3.87s-.53-2.84-1.58-3.87c-1.06-1.03-2.36-1.54-3.91-1.54h0ZM3396.34,529.15h8.99v-42.62h-8.99v42.62h0ZM3441.8,529.65c4.27,0,8.06-.9,11.36-2.71,3.3-1.8,5.85-4.35,7.66-7.66,1.8-3.3,2.71-7.12,2.71-11.45s-.9-8.06-2.71-11.36c-1.81-3.3-4.36-5.87-7.66-7.7-3.3-1.83-7.09-2.75-11.36-2.75s-8.06.92-11.36,2.75c-3.3,1.83-5.86,4.4-7.66,7.7-1.81,3.3-2.71,7.09-2.71,11.36s.9,8.14,2.71,11.45c1.8,3.3,4.36,5.86,7.66,7.66,3.3,1.81,7.09,2.71,11.36,2.71h0ZM3441.8,521.99c-3.77,0-6.8-1.32-9.08-3.96-2.28-2.63-3.41-6.03-3.41-10.2s1.14-7.56,3.41-10.2c2.28-2.63,5.3-3.96,9.08-3.96s6.81,1.32,9.11,3.96c2.3,2.64,3.46,6.04,3.46,10.2s-1.15,7.56-3.46,10.2c-2.3,2.64-5.34,3.96-9.11,3.96h0ZM3500.73,486.03c-5.88,0-10.43,2.03-13.65,6.08l-1-5.58h-7.83v42.62h8.99v-21.48c0-4.33,1.01-7.73,3.04-10.2,2.02-2.47,4.81-3.71,8.36-3.71,3.33,0,5.86,1.05,7.58,3.16,1.72,2.11,2.58,5.19,2.58,9.24v22.98h9.08v-23.48c0-6.88-1.6-11.88-4.79-14.99-3.19-3.11-7.31-4.66-12.36-4.66h0ZM3572.58,521.32c-1.89,0-2.83-1-2.83-3v-16.82c0-4.99-1.55-8.82-4.66-11.49-3.11-2.66-7.52-4-13.24-4-5.38,0-9.74,1.18-13.07,3.54-3.33,2.36-5.22,5.68-5.66,9.95h8.83c.33-1.89,1.34-3.4,3.04-4.54,1.69-1.14,3.84-1.71,6.45-1.71,2.94,0,5.24.68,6.91,2.04,1.67,1.36,2.5,3.23,2.5,5.62v2.58h-10.74c-5.94,0-10.46,1.18-13.57,3.54-3.11,2.36-4.66,5.73-4.66,10.11,0,3.89,1.44,6.94,4.33,9.16,2.88,2.22,6.71,3.33,11.49,3.33,6.16,0,10.85-2.44,14.07-7.32,0,2.22.61,3.91,1.83,5.08,1.22,1.17,3.22,1.75,5.99,1.75h4.74v-7.83h-1.75ZM3560.84,511.67c-.06,3.33-1.12,5.99-3.2,7.99-2.08,2-4.98,3-8.7,3-2.44,0-4.37-.55-5.79-1.67-1.41-1.11-2.12-2.58-2.12-4.41,0-2.11.75-3.7,2.25-4.79,1.5-1.08,3.63-1.62,6.41-1.62h11.16v1.5h0ZM3586.73,529.15h8.99v-58.27h-8.99v58.27h0ZM3610.54,515.08c.11,4.55,1.93,8.12,5.45,10.7,3.52,2.58,8.14,3.87,13.86,3.87,3.39,0,6.44-.54,9.16-1.62,2.72-1.08,4.86-2.64,6.41-4.66,1.55-2.02,2.33-4.37,2.33-7.03,0-3-.75-5.37-2.25-7.12-1.5-1.75-3.5-3.02-5.99-3.83-2.5-.8-5.58-1.4-9.24-1.79-2.72-.33-4.69-.62-5.91-.87-1.22-.25-2.24-.69-3.04-1.33-.81-.64-1.21-1.59-1.21-2.87,0-1.72.8-3.08,2.41-4.08,1.61-1,3.72-1.5,6.33-1.5s4.77.62,6.49,1.87c1.72,1.25,2.69,2.84,2.91,4.79h8.74c-.28-4.33-2.1-7.68-5.45-10.07-3.36-2.39-7.73-3.58-13.11-3.58-3.28,0-6.2.56-8.78,1.67-2.58,1.11-4.61,2.68-6.08,4.7s-2.2,4.34-2.2,6.95c0,2.77.73,4.98,2.2,6.62,1.47,1.64,3.41,2.83,5.83,3.58,2.41.75,5.48,1.35,9.2,1.79,2.72.33,4.73.65,6.03.96,1.3.3,2.34.82,3.12,1.54.78.72,1.17,1.8,1.17,3.25,0,1.72-.85,3.09-2.54,4.12-1.69,1.03-3.9,1.54-6.62,1.54-3.05,0-5.54-.71-7.45-2.12-1.92-1.41-2.96-3.23-3.12-5.45h-8.66Z"/>
  </g>
  <line class="cls-2" x1="2041.88" y1="106.79" x2="2041.88" y2="662.48"/>
</svg>